<svg xmlns="http://www.w3.org/2000/svg" viewBox="0 0 760 175" role="img" aria-label="2022 Running"><rect width="100%" height="100%" fill="#222222"/><text x="20" y="30" fill="#ffffff" font-family="Arial,sans-serif" font-size="20">2022 Running</text><text x="20" y="72" fill="#ffffff" font-family="Arial,sans-serif" font-size="13">2022</text><rect x="60" y="128" width="10" height="10" rx="2" fill="#2380a0"><title>2022-01-01: 5.4 km</title></rect><rect x="60" y="141" width="10" height="10" rx="2" fill="#27546a"><title>2022-01-02: 2.3 km</title></rect><rect x="73" y="63" width="10" height="10" rx="2" fill="#4dd2ff"><title>2022-01-03: 13.9 km</title></rect><rect x="73" y="76" width="10" height="10" rx="2" fill="#2380a0"><title>2022-01-04: 6.2 km</title></rect><rect x="73" y="89" width="10" height="10" rx="2" fill="#2380a0"><title>2022-01-05: 3.8 km</title></rect><rect x="73" y="102" width="10" height="10" rx="2" fill="#27546a"><title>2022-01-06: 2.8 km</title></rect><rect x="73" y="115" width="10" height="10" rx="2" fill="#2380a0"><title>2022-01-07: 6.2 km</title></rect><rect x="73" y="128" width="10" height="10" rx="2" fill="#ffff00"><title>2022-01-08: 15.5 km</title></rect><rect x="73" y="141" width="10" height="10" rx="2" fill="#2380a0"><title>2022-01-09: 5.6 km</title></rect><rect x="86" y="63" width="10" height="10" rx="2" fill="#2380a0"><title>2022-01-10: 5.1 km</title></rect><rect x="86" y="76" width="10" height="10" rx="2" fill="#2380a0"><title>2022-01-11: 6.4 km</title></rect><rect x="86" y="89" width="10" height="10" rx="2" fill="#4dd2ff"><title>2022-01-12: 9.0 km</title></rect><rect x="86" y="102" width="10" height="10" rx="2" fill="#2380a0"><title>2022-01-13: 6.5 km</title></rect><rect x="86" y="115" width="10" height="10" rx="2" fill="#2380a0"><title>2022-01-14: 4.9 km</title></rect><rect x="86" y="128" width="10" height="10" rx="2" fill="#4dd2ff"><title>2022-01-15: 7.6 km</title></rect><rect x="86" y="141" width="10" height="10" rx="2" fill="#4dd2ff"><title>2022-01-16: 8.8 km</title></rect><rect x="99" y="63" width="10" height="10" rx="2" fill="#4dd2ff"><title>2022-01-17: 9.4 km</title></rect><rect x="99" y="76" width="10" height="10" rx="2" fill="#4dd2ff"><title>2022-01-18: 11.1 km</title></rect><rect x="99" y="89" width="10" height="10" rx="2" fill="#4dd2ff"><title>2022-01-19: 9.1 km</title></rect><rect x="99" y="102" width="10" height="10" rx="2" fill="#4dd2ff"><title>2022-01-20: 11.7 km</title></rect><rect x="99" y="115" width="10" height="10" rx="2" fill="#4dd2ff"><title>2022-01-21: 9.1 km</title></rect><rect x="99" y="128" width="10" height="10" rx="2" fill="#4dd2ff"><title>2022-01-22: 8.5 km</title></rect><rect x="99" y="141" width="10" height="10" rx="2" fill="#343a40"><title>2022-01-23: 0.0 km</title></rect><rect x="112" y="63" width="10" height="10" rx="2" fill="#27546a"><title>2022-01-24: 1.5 km</title></rect><rect x="112" y="76" width="10" height="10" rx="2" fill="#343a40"><title>2022-01-25: 0.0 km</title></rect><rect x="112" y="89" width="10" height="10" rx="2" fill="#343a40"><title>2022-01-26: 0.0 km</title></rect><rect x="112" y="102" width="10" height="10" rx="2" fill="#343a40"><title>2022-01-27: 0.0 km</title></rect><rect x="112" y="115" width="10" height="10" rx="2" fill="#27546a"><title>2022-01-28: 2.6 km</title></rect><rect x="112" y="128" width="10" height="10" rx="2" fill="#343a40"><title>2022-01-29: 0.0 km</title></rect><rect x="112" y="141" width="10" height="10" rx="2" fill="#343a40"><title>2022-01-30: 0.0 km</title></rect><rect x="125" y="63" width="10" height="10" rx="2" fill="#343a40"><title>2022-01-31: 0.0 km</title></rect><rect x="125" y="76" width="10" height="10" rx="2" fill="#343a40"><title>2022-02-01: 0.0 km</title></rect><rect x="125" y="89" width="10" height="10" rx="2" fill="#343a40"><title>2022-02-02: 0.0 km</title></rect><rect x="125" y="102" width="10" height="10" rx="2" fill="#343a40"><title>2022-02-03: 0.0 km</title></rect><rect x="125" y="115" width="10" height="10" rx="2" fill="#27546a"><title>2022-02-04: 0.2 km</title></rect><rect x="125" y="128" width="10" height="10" rx="2" fill="#343a40"><title>2022-02-05: 0.0 km</title></rect><rect x="125" y="141" width="10" height="10" rx="2" fill="#343a40"><title>2022-02-06: 0.0 km</title></rect><rect x="138" y="63" width="10" height="10" rx="2" fill="#27546a"><title>2022-02-07: 1.5 km</title></rect><rect x="138" y="76" width="10" height="10" rx="2" fill="#2380a0"><title>2022-02-08: 3.5 km</title></rect><rect x="138" y="89" width="10" height="10" rx="2" fill="#4dd2ff"><title>2022-02-09: 10.7 km</title></rect><rect x="138" y="102" width="10" height="10" rx="2" fill="#4dd2ff"><title>2022-02-10: 11.0 km</title></rect><rect x="138" y="115" width="10" height="10" rx="2" fill="#ffff00"><title>2022-02-11: 16.5 km</title></rect><rect x="138" y="128" width="10" height="10" rx="2" fill="#343a40"><title>2022-02-12: 0.0 km</title></rect><rect x="138" y="141" width="10" height="10" rx="2" fill="#343a40"><title>2022-02-13: 0.0 km</title></rect><rect x="151" y="63" width="10" height="10" rx="2" fill="#2380a0"><title>2022-02-14: 4.7 km</title></rect><rect x="151" y="76" width="10" height="10" rx="2" fill="#2380a0"><title>2022-02-15: 6.8 km</title></rect><rect x="151" y="89" width="10" height="10" rx="2" fill="#4dd2ff"><title>2022-02-16: 11.4 km</title></rect><rect x="151" y="102" width="10" height="10" rx="2" fill="#4dd2ff"><title>2022-02-17: 9.2 km</title></rect><rect x="151" y="115" width="10" height="10" rx="2" fill="#4dd2ff"><title>2022-02-18: 7.7 km</title></rect><rect x="151" y="128" width="10" height="10" rx="2" fill="#2380a0"><title>2022-02-19: 6.5 km</title></rect><rect x="151" y="141" width="10" height="10" rx="2" fill="#2380a0"><title>2022-02-20: 5.6 km</title></rect><rect x="164" y="63" width="10" height="10" rx="2" fill="#27546a"><title>2022-02-21: 2.7 km</title></rect><rect x="164" y="76" width="10" height="10" rx="2" fill="#27546a"><title>2022-02-22: 1.9 km</title></rect><rect x="164" y="89" width="10" height="10" rx="2" fill="#4dd2ff"><title>2022-02-23: 8.0 km</title></rect><rect x="164" y="102" width="10" height="10" rx="2" fill="#2380a0"><title>2022-02-24: 5.1 km</title></rect><rect x="164" y="115" width="10" height="10" rx="2" fill="#2380a0"><title>2022-02-25: 6.2 km</title></rect><rect x="164" y="128" width="10" height="10" rx="2" fill="#2380a0"><title>2022-02-26: 5.4 km</title></rect><rect x="164" y="141" width="10" height="10" rx="2" fill="#2380a0"><title>2022-02-27: 5.4 km</title></rect><rect x="177" y="63" width="10" height="10" rx="2" fill="#2380a0"><title>2022-02-28: 5.0 km</title></rect><rect x="177" y="76" width="10" height="10" rx="2" fill="#2380a0"><title>2022-03-01: 5.1 km</title></rect><rect x="177" y="89" width="10" height="10" rx="2" fill="#2380a0"><title>2022-03-02: 6.2 km</title></rect><rect x="177" y="102" width="10" height="10" rx="2" fill="#2380a0"><title>2022-03-03: 6.9 km</title></rect><rect x="177" y="115" width="10" height="10" rx="2" fill="#4dd2ff"><title>2022-03-04: 11.8 km</title></rect><rect x="177" y="128" width="10" height="10" rx="2" fill="#2380a0"><title>2022-03-05: 5.3 km</title></rect><rect x="177" y="141" width="10" height="10" rx="2" fill="#2380a0"><title>2022-03-06: 6.6 km</title></rect><rect x="190" y="63" width="10" height="10" rx="2" fill="#4dd2ff"><title>2022-03-07: 7.1 km</title></rect><rect x="190" y="76" width="10" height="10" rx="2" fill="#4dd2ff"><title>2022-03-08: 8.2 km</title></rect><rect x="190" y="89" width="10" height="10" rx="2" fill="#2380a0"><title>2022-03-09: 3.3 km</title></rect><rect x="190" y="102" width="10" height="10" rx="2" fill="#ffff00"><title>2022-03-10: 17.3 km</title></rect><rect x="190" y="115" width="10" height="10" rx="2" fill="#4dd2ff"><title>2022-03-11: 7.6 km</title></rect><rect x="190" y="128" width="10" height="10" rx="2" fill="#2380a0"><title>2022-03-12: 7.0 km</title></rect><rect x="190" y="141" width="10" height="10" rx="2" fill="#27546a"><title>2022-03-13: 0.2 km</title></rect><rect x="203" y="63" width="10" height="10" rx="2" fill="#27546a"><title>2022-03-14: 1.0 km</title></rect><rect x="203" y="76" width="10" height="10" rx="2" fill="#27546a"><title>2022-03-15: 2.5 km</title></rect><rect x="203" y="89" width="10" height="10" rx="2" fill="#343a40"><title>2022-03-16: 0.0 km</title></rect><rect x="203" y="102" width="10" height="10" rx="2" fill="#343a40"><title>2022-03-17: 0.0 km</title></rect><rect x="203" y="115" width="10" height="10" rx="2" fill="#343a40"><title>2022-03-18: 0.0 km</title></rect><rect x="203" y="128" width="10" height="10" rx="2" fill="#27546a"><title>2022-03-19: 1.3 km</title></rect><rect x="203" y="141" width="10" height="10" rx="2" fill="#27546a"><title>2022-03-20: 0.9 km</title></rect><rect x="216" y="63" width="10" height="10" rx="2" fill="#2380a0"><title>2022-03-21: 4.1 km</title></rect><rect x="216" y="76" width="10" height="10" rx="2" fill="#27546a"><title>2022-03-22: 2.5 km</title></rect><rect x="216" y="89" width="10" height="10" rx="2" fill="#27546a"><title>2022-03-23: 0.8 km</title></rect><rect x="216" y="102" width="10" height="10" rx="2" fill="#27546a"><title>2022-03-24: 1.5 km</title></rect><rect x="216" y="115" width="10" height="10" rx="2" fill="#27546a"><title>2022-03-25: 0.7 km</title></rect><rect x="216" y="128" width="10" height="10" rx="2" fill="#27546a"><title>2022-03-26: 2.0 km</title></rect><rect x="216" y="141" width="10" height="10" rx="2" fill="#27546a"><title>2022-03-27: 0.8 km</title></rect><rect x="229" y="63" width="10" height="10" rx="2" fill="#27546a"><title>2022-03-28: 1.6 km</title></rect><rect x="229" y="76" width="10" height="10" rx="2" fill="#343a40"><title>2022-03-29: 0.0 km</title></rect><rect x="229" y="89" width="10" height="10" rx="2" fill="#343a40"><title>2022-03-30: 0.0 km</title></rect><rect x="229" y="102" width="10" height="10" rx="2" fill="#2380a0"><title>2022-03-31: 7.0 km</title></rect><rect x="229" y="115" width="10" height="10" rx="2" fill="#27546a"><title>2022-04-01: 2.2 km</title></rect><rect x="229" y="128" width="10" height="10" rx="2" fill="#343a40"><title>2022-04-02: 0.0 km</title></rect><rect x="229" y="141" width="10" height="10" rx="2" fill="#27546a"><title>2022-04-03: 1.6 km</title></rect><rect x="242" y="63" width="10" height="10" rx="2" fill="#343a40"><title>2022-04-04: 0.0 km</title></rect><rect x="242" y="76" width="10" height="10" rx="2" fill="#343a40"><title>2022-04-05: 0.0 km</title></rect><rect x="242" y="89" width="10" height="10" rx="2" fill="#343a40"><title>2022-04-06: 0.0 km</title></rect><rect x="242" y="102" width="10" height="10" rx="2" fill="#27546a"><title>2022-04-07: 2.0 km</title></rect><rect x="242" y="115" width="10" height="10" rx="2" fill="#27546a"><title>2022-04-08: 1.3 km</title></rect><rect x="242" y="128" width="10" height="10" rx="2" fill="#27546a"><title>2022-04-09: 1.3 km</title></rect><rect x="242" y="141" width="10" height="10" rx="2" fill="#27546a"><title>2022-04-10: 1.2 km</title></rect><rect x="255" y="63" width="10" height="10" rx="2" fill="#27546a"><title>2022-04-11: 0.5 km</title></rect><rect x="255" y="76" width="10" height="10" rx="2" fill="#27546a"><title>2022-04-12: 1.2 km</title></rect><rect x="255" y="89" width="10" height="10" rx="2" fill="#343a40"><title>2022-04-13: 0.0 km</title></rect><rect x="255" y="102" width="10" height="10" rx="2" fill="#27546a"><title>2022-04-14: 1.6 km</title></rect><rect x="255" y="115" width="10" height="10" rx="2" fill="#2380a0"><title>2022-04-15: 3.2 km</title></rect><rect x="255" y="128" width="10" height="10" rx="2" fill="#2380a0"><title>2022-04-16: 3.6 km</title></rect><rect x="255" y="141" width="10" height="10" rx="2" fill="#4dd2ff"><title>2022-04-17: 7.5 km</title></rect><rect x="268" y="63" width="10" height="10" rx="2" fill="#4dd2ff"><title>2022-04-18: 9.9 km</title></rect><rect x="268" y="76" width="10" height="10" rx="2" fill="#343a40"><title>2022-04-19: 0.0 km</title></rect><rect x="268" y="89" width="10" height="10" rx="2" fill="#4dd2ff"><title>2022-04-20: 7.4 km</title></rect><rect x="268" y="102" width="10" height="10" rx="2" fill="#343a40"><title>2022-04-21: 0.0 km</title></rect><rect x="268" y="115" width="10" height="10" rx="2" fill="#2380a0"><title>2022-04-22: 5.4 km</title></rect><rect x="268" y="128" width="10" height="10" rx="2" fill="#2380a0"><title>2022-04-23: 3.2 km</title></rect><rect x="268" y="141" width="10" height="10" rx="2" fill="#4dd2ff"><title>2022-04-24: 9.9 km</title></rect><rect x="281" y="63" width="10" height="10" rx="2" fill="#27546a"><title>2022-04-25: 2.5 km</title></rect><rect x="281" y="76" width="10" height="10" rx="2" fill="#27546a"><title>2022-04-26: 1.7 km</title></rect><rect x="281" y="89" width="10" height="10" rx="2" fill="#27546a"><title>2022-04-27: 2.9 km</title></rect><rect x="281" y="102" width="10" height="10" rx="2" fill="#27546a"><title>2022-04-28: 1.4 km</title></rect><rect x="281" y="115" width="10" height="10" rx="2" fill="#27546a"><title>2022-04-29: 2.1 km</title></rect><rect x="281" y="128" width="10" height="10" rx="2" fill="#343a40"><title>2022-04-30: 0.0 km</title></rect><rect x="281" y="141" width="10" height="10" rx="2" fill="#343a40"><title>2022-05-01: 0.0 km</title></rect><rect x="294" y="63" width="10" height="10" rx="2" fill="#2380a0"><title>2022-05-02: 6.9 km</title></rect><rect x="294" y="76" width="10" height="10" rx="2" fill="#4dd2ff"><title>2022-05-03: 9.4 km</title></rect><rect x="294" y="89" width="10" height="10" rx="2" fill="#4dd2ff"><title>2022-05-04: 9.0 km</title></rect><rect x="294" y="102" width="10" height="10" rx="2" fill="#4dd2ff"><title>2022-05-05: 8.5 km</title></rect><rect x="294" y="115" width="10" height="10" rx="2" fill="#4dd2ff"><title>2022-05-06: 14.9 km</title></rect><rect x="294" y="128" width="10" height="10" rx="2" fill="#2380a0"><title>2022-05-07: 3.1 km</title></rect><rect x="294" y="141" width="10" height="10" rx="2" fill="#27546a"><title>2022-05-08: 1.6 km</title></rect><rect x="307" y="63" width="10" height="10" rx="2" fill="#4dd2ff"><title>2022-05-09: 13.1 km</title></rect><rect x="307" y="76" width="10" height="10" rx="2" fill="#27546a"><title>2022-05-10: 0.4 km</title></rect><rect x="307" y="89" width="10" height="10" rx="2" fill="#27546a"><title>2022-05-11: 0.4 km</title></rect><rect x="307" y="102" width="10" height="10" rx="2" fill="#27546a"><title>2022-05-12: 1.3 km</title></rect><rect x="307" y="115" width="10" height="10" rx="2" fill="#27546a"><title>2022-05-13: 2.0 km</title></rect><rect x="307" y="128" width="10" height="10" rx="2" fill="#27546a"><title>2022-05-14: 2.8 km</title></rect><rect x="307" y="141" width="10" height="10" rx="2" fill="#4dd2ff"><title>2022-05-15: 7.9 km</title></rect><rect x="320" y="63" width="10" height="10" rx="2" fill="#4dd2ff"><title>2022-05-16: 10.1 km</title></rect><rect x="320" y="76" width="10" height="10" rx="2" fill="#4dd2ff"><title>2022-05-17: 11.9 km</title></rect><rect x="320" y="89" width="10" height="10" rx="2" fill="#4dd2ff"><title>2022-05-18: 8.3 km</title></rect><rect x="320" y="102" width="10" height="10" rx="2" fill="#4dd2ff"><title>2022-05-19: 8.8 km</title></rect><rect x="320" y="115" width="10" height="10" rx="2" fill="#4dd2ff"><title>2022-05-20: 8.8 km</title></rect><rect x="320" y="128" width="10" height="10" rx="2" fill="#2380a0"><title>2022-05-21: 7.0 km</title></rect><rect x="320" y="141" width="10" height="10" rx="2" fill="#ffff00"><title>2022-05-22: 35.6 km</title></rect><rect x="333" y="63" width="10" height="10" rx="2" fill="#ffff00"><title>2022-05-23: 16.1 km</title></rect><rect x="333" y="76" width="10" height="10" rx="2" fill="#ffff00"><title>2022-05-24: 18.3 km</title></rect><rect x="333" y="89" width="10" height="10" rx="2" fill="#ffff00"><title>2022-05-25: 17.3 km</title></rect><rect x="333" y="102" width="10" height="10" rx="2" fill="#ffff00"><title>2022-05-26: 17.6 km</title></rect><rect x="333" y="115" width="10" height="10" rx="2" fill="#4dd2ff"><title>2022-05-27: 7.3 km</title></rect><rect x="333" y="128" width="10" height="10" rx="2" fill="#4dd2ff"><title>2022-05-28: 15.0 km</title></rect><rect x="333" y="141" width="10" height="10" rx="2" fill="#ffff00"><title>2022-05-29: 24.5 km</title></rect><rect x="346" y="63" width="10" height="10" rx="2" fill="#ffff00"><title>2022-05-30: 15.1 km</title></rect><rect x="346" y="76" width="10" height="10" rx="2" fill="#ffff00"><title>2022-05-31: 37.6 km</title></rect><rect x="346" y="89" width="10" height="10" rx="2" fill="#ffff00"><title>2022-06-01: 21.8 km</title></rect><rect x="346" y="102" width="10" height="10" rx="2" fill="#4dd2ff"><title>2022-06-02: 8.1 km</title></rect><rect x="346" y="115" width="10" height="10" rx="2" fill="#ffff00"><title>2022-06-03: 44.6 km</title></rect><rect x="346" y="128" width="10" height="10" rx="2" fill="#4dd2ff"><title>2022-06-04: 14.9 km</title></rect><rect x="346" y="141" width="10" height="10" rx="2" fill="#ffff00"><title>2022-06-05: 16.5 km</title></rect><rect x="359" y="63" width="10" height="10" rx="2" fill="#4dd2ff"><title>2022-06-06: 12.6 km</title></rect><rect x="359" y="76" width="10" height="10" rx="2" fill="#4dd2ff"><title>2022-06-07: 8.2 km</title></rect><rect x="359" y="89" width="10" height="10" rx="2" fill="#ffff00"><title>2022-06-08: 18.9 km</title></rect><rect x="359" y="102" width="10" height="10" rx="2" fill="#ffff00"><title>2022-06-09: 21.9 km</title></rect><rect x="359" y="115" width="10" height="10" rx="2" fill="#ffff00"><title>2022-06-10: 16.4 km</title></rect><rect x="359" y="128" width="10" height="10" rx="2" fill="#2380a0"><title>2022-06-11: 5.8 km</title></rect><rect x="359" y="141" width="10" height="10" rx="2" fill="#ffff00"><title>2022-06-12: 27.1 km</title></rect><rect x="372" y="63" width="10" height="10" rx="2" fill="#ffff00"><title>2022-06-13: 18.2 km</title></rect><rect x="372" y="76" width="10" height="10" rx="2" fill="#4dd2ff"><title>2022-06-14: 7.5 km</title></rect><rect x="372" y="89" width="10" height="10" rx="2" fill="#ffff00"><title>2022-06-15: 17.5 km</title></rect><rect x="372" y="102" width="10" height="10" rx="2" fill="#ffff00"><title>2022-06-16: 33.9 km</title></rect><rect x="372" y="115" width="10" height="10" rx="2" fill="#ffff00"><title>2022-06-17: 23.7 km</title></rect><rect x="372" y="128" width="10" height="10" rx="2" fill="#4dd2ff"><title>2022-06-18: 13.4 km</title></rect><rect x="372" y="141" width="10" height="10" rx="2" fill="#ffff00"><title>2022-06-19: 15.8 km</title></rect><rect x="385" y="63" width="10" height="10" rx="2" fill="#ffff00"><title>2022-06-20: 15.9 km</title></rect><rect x="385" y="76" width="10" height="10" rx="2" fill="#ffff00"><title>2022-06-21: 16.1 km</title></rect><rect x="385" y="89" width="10" height="10" rx="2" fill="#ffff00"><title>2022-06-22: 16.0 km</title></rect><rect x="385" y="102" width="10" height="10" rx="2" fill="#ffff00"><title>2022-06-23: 21.2 km</title></rect><rect x="385" y="115" width="10" height="10" rx="2" fill="#ffff00"><title>2022-06-24: 18.4 km</title></rect><rect x="385" y="128" width="10" height="10" rx="2" fill="#ffff00"><title>2022-06-25: 18.4 km</title></rect><rect x="385" y="141" width="10" height="10" rx="2" fill="#ffff00"><title>2022-06-26: 26.8 km</title></rect><rect x="398" y="63" width="10" height="10" rx="2" fill="#2380a0"><title>2022-06-27: 3.6 km</title></rect><rect x="398" y="76" width="10" height="10" rx="2" fill="#ffff00"><title>2022-06-28: 18.0 km</title></rect><rect x="398" y="89" width="10" height="10" rx="2" fill="#ffff00"><title>2022-06-29: 17.5 km</title></rect><rect x="398" y="102" width="10" height="10" rx="2" fill="#ffff00"><title>2022-06-30: 21.2 km</title></rect><rect x="398" y="115" width="10" height="10" rx="2" fill="#ffff00"><title>2022-07-01: 22.0 km</title></rect><rect x="398" y="128" width="10" height="10" rx="2" fill="#27546a"><title>2022-07-02: 0.1 km</title></rect><rect x="398" y="141" width="10" height="10" rx="2" fill="#ffff00"><title>2022-07-03: 27.1 km</title></rect><rect x="411" y="63" width="10" height="10" rx="2" fill="#4dd2ff"><title>2022-07-04: 8.3 km</title></rect><rect x="411" y="76" width="10" height="10" rx="2" fill="#4dd2ff"><title>2022-07-05: 9.2 km</title></rect><rect x="411" y="89" width="10" height="10" rx="2" fill="#ffff00"><title>2022-07-06: 20.8 km</title></rect><rect x="411" y="102" width="10" height="10" rx="2" fill="#ffff00"><title>2022-07-07: 16.8 km</title></rect><rect x="411" y="115" width="10" height="10" rx="2" fill="#ffff00"><title>2022-07-08: 18.6 km</title></rect><rect x="411" y="128" width="10" height="10" rx="2" fill="#27546a"><title>2022-07-09: 1.9 km</title></rect><rect x="411" y="141" width="10" height="10" rx="2" fill="#ffff00"><title>2022-07-10: 29.2 km</title></rect><rect x="424" y="63" width="10" height="10" rx="2" fill="#4dd2ff"><title>2022-07-11: 12.7 km</title></rect><rect x="424" y="76" width="10" height="10" rx="2" fill="#4dd2ff"><title>2022-07-12: 10.6 km</title></rect><rect x="424" y="89" width="10" height="10" rx="2" fill="#ffff00"><title>2022-07-13: 25.4 km</title></rect><rect x="424" y="102" width="10" height="10" rx="2" fill="#ffff00"><title>2022-07-14: 21.4 km</title></rect><rect x="424" y="115" width="10" height="10" rx="2" fill="#ffff00"><title>2022-07-15: 20.2 km</title></rect><rect x="424" y="128" width="10" height="10" rx="2" fill="#27546a"><title>2022-07-16: 1.8 km</title></rect><rect x="424" y="141" width="10" height="10" rx="2" fill="#ffff00"><title>2022-07-17: 29.1 km</title></rect><rect x="437" y="63" width="10" height="10" rx="2" fill="#ffff00"><title>2022-07-18: 24.8 km</title></rect><rect x="437" y="76" width="10" height="10" rx="2" fill="#4dd2ff"><title>2022-07-19: 9.8 km</title></rect><rect x="437" y="89" width="10" height="10" rx="2" fill="#ffff00"><title>2022-07-20: 25.6 km</title></rect><rect x="437" y="102" width="10" height="10" rx="2" fill="#ffff00"><title>2022-07-21: 17.1 km</title></rect><rect x="437" y="115" width="10" height="10" rx="2" fill="#ffff00"><title>2022-07-22: 22.8 km</title></rect><rect x="437" y="128" width="10" height="10" rx="2" fill="#ffff00"><title>2022-07-23: 32.3 km</title></rect><rect x="437" y="141" width="10" height="10" rx="2" fill="#ffff00"><title>2022-07-24: 26.7 km</title></rect><rect x="450" y="63" width="10" height="10" rx="2" fill="#4dd2ff"><title>2022-07-25: 9.1 km</title></rect><rect x="450" y="76" width="10" height="10" rx="2" fill="#343a40"><title>2022-07-26: 0.0 km</title></rect><rect x="450" y="89" width="10" height="10" rx="2" fill="#ffff00"><title>2022-07-27: 27.2 km</title></rect><rect x="450" y="102" width="10" height="10" rx="2" fill="#4dd2ff"><title>2022-07-28: 11.1 km</title></rect><rect x="450" y="115" width="10" height="10" rx="2" fill="#2380a0"><title>2022-07-29: 5.6 km</title></rect><rect x="450" y="128" width="10" height="10" rx="2" fill="#ffff00"><title>2022-07-30: 25.1 km</title></rect><rect x="450" y="141" width="10" height="10" rx="2" fill="#ffff00"><title>2022-07-31: 24.3 km</title></rect><rect x="463" y="63" width="10" height="10" rx="2" fill="#ffff00"><title>2022-08-01: 20.2 km</title></rect><rect x="463" y="76" width="10" height="10" rx="2" fill="#27546a"><title>2022-08-02: 2.2 km</title></rect><rect x="463" y="89" width="10" height="10" rx="2" fill="#4dd2ff"><title>2022-08-03: 13.9 km</title></rect><rect x="463" y="102" width="10" height="10" rx="2" fill="#4dd2ff"><title>2022-08-04: 14.3 km</title></rect><rect x="463" y="115" width="10" height="10" rx="2" fill="#ffff00"><title>2022-08-05: 18.7 km</title></rect><rect x="463" y="128" width="10" height="10" rx="2" fill="#2380a0"><title>2022-08-06: 4.0 km</title></rect><rect x="463" y="141" width="10" height="10" rx="2" fill="#ffff00"><title>2022-08-07: 32.4 km</title></rect><rect x="476" y="63" width="10" height="10" rx="2" fill="#ffff00"><title>2022-08-08: 22.0 km</title></rect><rect x="476" y="76" width="10" height="10" rx="2" fill="#27546a"><title>2022-08-09: 2.1 km</title></rect><rect x="476" y="89" width="10" height="10" rx="2" fill="#343a40"><title>2022-08-10: 0.0 km</title></rect><rect x="476" y="102" width="10" height="10" rx="2" fill="#ffff00"><title>2022-08-11: 20.6 km</title></rect><rect x="476" y="115" width="10" height="10" rx="2" fill="#ffff00"><title>2022-08-12: 25.9 km</title></rect><rect x="476" y="128" width="10" height="10" rx="2" fill="#4dd2ff"><title>2022-08-13: 14.1 km</title></rect><rect x="476" y="141" width="10" height="10" rx="2" fill="#ffff00"><title>2022-08-14: 21.8 km</title></rect><rect x="489" y="63" width="10" height="10" rx="2" fill="#27546a"><title>2022-08-15: 0.5 km</title></rect><rect x="489" y="76" width="10" height="10" rx="2" fill="#27546a"><title>2022-08-16: 2.0 km</title></rect><rect x="489" y="89" width="10" height="10" rx="2" fill="#27546a"><title>2022-08-17: 2.2 km</title></rect><rect x="489" y="102" width="10" height="10" rx="2" fill="#27546a"><title>2022-08-18: 2.4 km</title></rect><rect x="489" y="115" width="10" height="10" rx="2" fill="#2380a0"><title>2022-08-19: 3.8 km</title></rect><rect x="489" y="128" width="10" height="10" rx="2" fill="#2380a0"><title>2022-08-20: 3.7 km</title></rect><rect x="489" y="141" width="10" height="10" rx="2" fill="#27546a"><title>2022-08-21: 2.8 km</title></rect><rect x="502" y="63" width="10" height="10" rx="2" fill="#ffff00"><title>2022-08-22: 15.4 km</title></rect><rect x="502" y="76" width="10" height="10" rx="2" fill="#4dd2ff"><title>2022-08-23: 13.4 km</title></rect><rect x="502" y="89" width="10" height="10" rx="2" fill="#4dd2ff"><title>2022-08-24: 7.3 km</title></rect><rect x="502" y="102" width="10" height="10" rx="2" fill="#4dd2ff"><title>2022-08-25: 12.2 km</title></rect><rect x="502" y="115" width="10" height="10" rx="2" fill="#ffff00"><title>2022-08-26: 25.0 km</title></rect><rect x="502" y="128" width="10" height="10" rx="2" fill="#ffff00"><title>2022-08-27: 20.4 km</title></rect><rect x="502" y="141" width="10" height="10" rx="2" fill="#ffff00"><title>2022-08-28: 37.3 km</title></rect><rect x="515" y="63" width="10" height="10" rx="2" fill="#ffff00"><title>2022-08-29: 20.3 km</title></rect><rect x="515" y="76" width="10" height="10" rx="2" fill="#4dd2ff"><title>2022-08-30: 8.4 km</title></rect><rect x="515" y="89" width="10" height="10" rx="2" fill="#ffff00"><title>2022-08-31: 20.3 km</title></rect><rect x="515" y="102" width="10" height="10" rx="2" fill="#ffff00"><title>2022-09-01: 18.2 km</title></rect><rect x="515" y="115" width="10" height="10" rx="2" fill="#4dd2ff"><title>2022-09-02: 11.9 km</title></rect><rect x="515" y="128" width="10" height="10" rx="2" fill="#343a40"><title>2022-09-03: 0.0 km</title></rect><rect x="515" y="141" width="10" height="10" rx="2" fill="#343a40"><title>2022-09-04: 0.0 km</title></rect><rect x="528" y="63" width="10" height="10" rx="2" fill="#343a40"><title>2022-09-05: 0.0 km</title></rect><rect x="528" y="76" width="10" height="10" rx="2" fill="#343a40"><title>2022-09-06: 0.0 km</title></rect><rect x="528" y="89" width="10" height="10" rx="2" fill="#4dd2ff"><title>2022-09-07: 13.5 km</title></rect><rect x="528" y="102" width="10" height="10" rx="2" fill="#ffff00"><title>2022-09-08: 17.1 km</title></rect><rect x="528" y="115" width="10" height="10" rx="2" fill="#ffff00"><title>2022-09-09: 17.8 km</title></rect><rect x="528" y="128" width="10" height="10" rx="2" fill="#4dd2ff"><title>2022-09-10: 11.8 km</title></rect><rect x="528" y="141" width="10" height="10" rx="2" fill="#ffff00"><title>2022-09-11: 30.1 km</title></rect><rect x="541" y="63" width="10" height="10" rx="2" fill="#ffff00"><title>2022-09-12: 15.9 km</title></rect><rect x="541" y="76" width="10" height="10" rx="2" fill="#27546a"><title>2022-09-13: 0.2 km</title></rect><rect x="541" y="89" width="10" height="10" rx="2" fill="#ffff00"><title>2022-09-14: 18.1 km</title></rect><rect x="541" y="102" width="10" height="10" rx="2" fill="#ffff00"><title>2022-09-15: 19.8 km</title></rect><rect x="541" y="115" width="10" height="10" rx="2" fill="#4dd2ff"><title>2022-09-16: 11.9 km</title></rect><rect x="541" y="128" width="10" height="10" rx="2" fill="#343a40"><title>2022-09-17: 0.0 km</title></rect><rect x="541" y="141" width="10" height="10" rx="2" fill="#ffff00"><title>2022-09-18: 32.4 km</title></rect><rect x="554" y="63" width="10" height="10" rx="2" fill="#2380a0"><title>2022-09-19: 4.9 km</title></rect><rect x="554" y="76" width="10" height="10" rx="2" fill="#2380a0"><title>2022-09-20: 5.1 km</title></rect><rect x="554" y="89" width="10" height="10" rx="2" fill="#ffff00"><title>2022-09-21: 18.0 km</title></rect><rect x="554" y="102" width="10" height="10" rx="2" fill="#ffff00"><title>2022-09-22: 18.8 km</title></rect><rect x="554" y="115" width="10" height="10" rx="2" fill="#ffff00"><title>2022-09-23: 15.4 km</title></rect><rect x="554" y="128" width="10" height="10" rx="2" fill="#343a40"><title>2022-09-24: 0.0 km</title></rect><rect x="554" y="141" width="10" height="10" rx="2" fill="#ffff00"><title>2022-09-25: 41.0 km</title></rect><rect x="567" y="63" width="10" height="10" rx="2" fill="#ffff00"><title>2022-09-26: 19.9 km</title></rect><rect x="567" y="76" width="10" height="10" rx="2" fill="#ffff00"><title>2022-09-27: 21.8 km</title></rect><rect x="567" y="89" width="10" height="10" rx="2" fill="#4dd2ff"><title>2022-09-28: 8.0 km</title></rect><rect x="567" y="102" width="10" height="10" rx="2" fill="#4dd2ff"><title>2022-09-29: 10.7 km</title></rect><rect x="567" y="115" width="10" height="10" rx="2" fill="#343a40"><title>2022-09-30: 0.0 km</title></rect><rect x="567" y="128" width="10" height="10" rx="2" fill="#ffff00"><title>2022-10-01: 24.2 km</title></rect><rect x="567" y="141" width="10" height="10" rx="2" fill="#4dd2ff"><title>2022-10-02: 9.5 km</title></rect><rect x="580" y="63" width="10" height="10" rx="2" fill="#2380a0"><title>2022-10-03: 3.2 km</title></rect><rect x="580" y="76" width="10" height="10" rx="2" fill="#4dd2ff"><title>2022-10-04: 10.5 km</title></rect><rect x="580" y="89" width="10" height="10" rx="2" fill="#ffff00"><title>2022-10-05: 15.7 km</title></rect><rect x="580" y="102" width="10" height="10" rx="2" fill="#4dd2ff"><title>2022-10-06: 14.9 km</title></rect><rect x="580" y="115" width="10" height="10" rx="2" fill="#ffff00"><title>2022-10-07: 15.5 km</title></rect><rect x="580" y="128" width="10" height="10" rx="2" fill="#2380a0"><title>2022-10-08: 4.8 km</title></rect><rect x="580" y="141" width="10" height="10" rx="2" fill="#ffff00"><title>2022-10-09: 34.6 km</title></rect><rect x="593" y="63" width="10" height="10" rx="2" fill="#4dd2ff"><title>2022-10-10: 12.3 km</title></rect><rect x="593" y="76" width="10" height="10" rx="2" fill="#343a40"><title>2022-10-11: 0.0 km</title></rect><rect x="593" y="89" width="10" height="10" rx="2" fill="#ffff00"><title>2022-10-12: 20.8 km</title></rect><rect x="593" y="102" width="10" height="10" rx="2" fill="#ffff00"><title>2022-10-13: 21.0 km</title></rect><rect x="593" y="115" width="10" height="10" rx="2" fill="#ffff00"><title>2022-10-14: 15.7 km</title></rect><rect x="593" y="128" width="10" height="10" rx="2" fill="#4dd2ff"><title>2022-10-15: 10.4 km</title></rect><rect x="593" y="141" width="10" height="10" rx="2" fill="#ffff00"><title>2022-10-16: 33.3 km</title></rect><rect x="606" y="63" width="10" height="10" rx="2" fill="#ffff00"><title>2022-10-17: 15.8 km</title></rect><rect x="606" y="76" width="10" height="10" rx="2" fill="#27546a"><title>2022-10-18: 2.1 km</title></rect><rect x="606" y="89" width="10" height="10" rx="2" fill="#4dd2ff"><title>2022-10-19: 14.0 km</title></rect><rect x="606" y="102" width="10" height="10" rx="2" fill="#4dd2ff"><title>2022-10-20: 14.0 km</title></rect><rect x="606" y="115" width="10" height="10" rx="2" fill="#343a40"><title>2022-10-21: 0.0 km</title></rect><rect x="606" y="128" width="10" height="10" rx="2" fill="#343a40"><title>2022-10-22: 0.0 km</title></rect><rect x="606" y="141" width="10" height="10" rx="2" fill="#343a40"><title>2022-10-23: 0.0 km</title></rect><rect x="619" y="63" width="10" height="10" rx="2" fill="#4dd2ff"><title>2022-10-24: 13.9 km</title></rect><rect x="619" y="76" width="10" height="10" rx="2" fill="#ffff00"><title>2022-10-25: 21.1 km</title></rect><rect x="619" y="89" width="10" height="10" rx="2" fill="#4dd2ff"><title>2022-10-26: 13.8 km</title></rect><rect x="619" y="102" width="10" height="10" rx="2" fill="#4dd2ff"><title>2022-10-27: 14.0 km</title></rect><rect x="619" y="115" width="10" height="10" rx="2" fill="#4dd2ff"><title>2022-10-28: 11.8 km</title></rect><rect x="619" y="128" width="10" height="10" rx="2" fill="#ffff00"><title>2022-10-29: 45.6 km</title></rect><rect x="619" y="141" width="10" height="10" rx="2" fill="#ffff00"><title>2022-10-30: 15.3 km</title></rect><rect x="632" y="63" width="10" height="10" rx="2" fill="#343a40"><title>2022-10-31: 0.0 km</title></rect><rect x="632" y="76" width="10" height="10" rx="2" fill="#4dd2ff"><title>2022-11-01: 12.1 km</title></rect><rect x="632" y="89" width="10" height="10" rx="2" fill="#343a40"><title>2022-11-02: 0.0 km</title></rect><rect x="632" y="102" width="10" height="10" rx="2" fill="#4dd2ff"><title>2022-11-03: 12.4 km</title></rect><rect x="632" y="115" width="10" height="10" rx="2" fill="#4dd2ff"><title>2022-11-04: 14.0 km</title></rect><rect x="632" y="128" width="10" height="10" rx="2" fill="#ffff00"><title>2022-11-05: 30.3 km</title></rect><rect x="632" y="141" width="10" height="10" rx="2" fill="#343a40"><title>2022-11-06: 0.0 km</title></rect><rect x="645" y="63" width="10" height="10" rx="2" fill="#4dd2ff"><title>2022-11-07: 12.0 km</title></rect><rect x="645" y="76" width="10" height="10" rx="2" fill="#ffff00"><title>2022-11-08: 15.9 km</title></rect><rect x="645" y="89" width="10" height="10" rx="2" fill="#ffff00"><title>2022-11-09: 16.7 km</title></rect><rect x="645" y="102" width="10" height="10" rx="2" fill="#ffff00"><title>2022-11-10: 30.5 km</title></rect><rect x="645" y="115" width="10" height="10" rx="2" fill="#2380a0"><title>2022-11-11: 6.4 km</title></rect><rect x="645" y="128" width="10" height="10" rx="2" fill="#4dd2ff"><title>2022-11-12: 11.8 km</title></rect><rect x="645" y="141" width="10" height="10" rx="2" fill="#ffff00"><title>2022-11-13: 35.4 km</title></rect><rect x="658" y="63" width="10" height="10" rx="2" fill="#4dd2ff"><title>2022-11-14: 14.6 km</title></rect><rect x="658" y="76" width="10" height="10" rx="2" fill="#4dd2ff"><title>2022-11-15: 7.8 km</title></rect><rect x="658" y="89" width="10" height="10" rx="2" fill="#4dd2ff"><title>2022-11-16: 13.6 km</title></rect><rect x="658" y="102" width="10" height="10" rx="2" fill="#4dd2ff"><title>2022-11-17: 12.6 km</title></rect><rect x="658" y="115" width="10" height="10" rx="2" fill="#ffff00"><title>2022-11-18: 18.2 km</title></rect><rect x="658" y="128" width="10" height="10" rx="2" fill="#ffff00"><title>2022-11-19: 27.0 km</title></rect><rect x="658" y="141" width="10" height="10" rx="2" fill="#ffff00"><title>2022-11-20: 25.0 km</title></rect><rect x="671" y="63" width="10" height="10" rx="2" fill="#ffff00"><title>2022-11-21: 23.5 km</title></rect><rect x="671" y="76" width="10" height="10" rx="2" fill="#2380a0"><title>2022-11-22: 4.5 km</title></rect><rect x="671" y="89" width="10" height="10" rx="2" fill="#ffff00"><title>2022-11-23: 18.8 km</title></rect><rect x="671" y="102" width="10" height="10" rx="2" fill="#2380a0"><title>2022-11-24: 4.0 km</title></rect><rect x="671" y="115" width="10" height="10" rx="2" fill="#4dd2ff"><title>2022-11-25: 12.8 km</title></rect><rect x="671" y="128" width="10" height="10" rx="2" fill="#ffff00"><title>2022-11-26: 20.2 km</title></rect><rect x="671" y="141" width="10" height="10" rx="2" fill="#ffff00"><title>2022-11-27: 28.7 km</title></rect><rect x="684" y="63" width="10" height="10" rx="2" fill="#2380a0"><title>2022-11-28: 3.5 km</title></rect><rect x="684" y="76" width="10" height="10" rx="2" fill="#4dd2ff"><title>2022-11-29: 15.0 km</title></rect><rect x="684" y="89" width="10" height="10" rx="2" fill="#ffff00"><title>2022-11-30: 29.2 km</title></rect><rect x="684" y="102" width="10" height="10" rx="2" fill="#ffff00"><title>2022-12-01: 28.7 km</title></rect><rect x="684" y="115" width="10" height="10" rx="2" fill="#4dd2ff"><title>2022-12-02: 10.8 km</title></rect><rect x="684" y="128" width="10" height="10" rx="2" fill="#ffff00"><title>2022-12-03: 16.9 km</title></rect><rect x="684" y="141" width="10" height="10" rx="2" fill="#ffff00"><title>2022-12-04: 25.4 km</title></rect><rect x="697" y="63" width="10" height="10" rx="2" fill="#2380a0"><title>2022-12-05: 6.7 km</title></rect><rect x="697" y="76" width="10" height="10" rx="2" fill="#4dd2ff"><title>2022-12-06: 8.0 km</title></rect><rect x="697" y="89" width="10" height="10" rx="2" fill="#4dd2ff"><title>2022-12-07: 12.0 km</title></rect><rect x="697" y="102" width="10" height="10" rx="2" fill="#ffff00"><title>2022-12-08: 19.8 km</title></rect><rect x="697" y="115" width="10" height="10" rx="2" fill="#4dd2ff"><title>2022-12-09: 9.6 km</title></rect><rect x="697" y="128" width="10" height="10" rx="2" fill="#ffff00"><title>2022-12-10: 26.6 km</title></rect><rect x="697" y="141" width="10" height="10" rx="2" fill="#ffff00"><title>2022-12-11: 38.5 km</title></rect><rect x="710" y="63" width="10" height="10" rx="2" fill="#2380a0"><title>2022-12-12: 3.9 km</title></rect><rect x="710" y="76" width="10" height="10" rx="2" fill="#2380a0"><title>2022-12-13: 3.1 km</title></rect><rect x="710" y="89" width="10" height="10" rx="2" fill="#27546a"><title>2022-12-14: 2.0 km</title></rect><rect x="710" y="102" width="10" height="10" rx="2" fill="#4dd2ff"><title>2022-12-15: 10.4 km</title></rect><rect x="710" y="115" width="10" height="10" rx="2" fill="#27546a"><title>2022-12-16: 0.6 km</title></rect><rect x="710" y="128" width="10" height="10" rx="2" fill="#27546a"><title>2022-12-17: 2.5 km</title></rect><rect x="710" y="141" width="10" height="10" rx="2" fill="#ffff00"><title>2022-12-18: 21.7 km</title></rect><rect x="723" y="63" width="10" height="10" rx="2" fill="#4dd2ff"><title>2022-12-19: 12.6 km</title></rect><rect x="723" y="76" width="10" height="10" rx="2" fill="#27546a"><title>2022-12-20: 0.8 km</title></rect><rect x="723" y="89" width="10" height="10" rx="2" fill="#2380a0"><title>2022-12-21: 3.9 km</title></rect><rect x="723" y="102" width="10" height="10" rx="2" fill="#2380a0"><title>2022-12-22: 3.7 km</title></rect><rect x="723" y="115" width="10" height="10" rx="2" fill="#ffff00"><title>2022-12-23: 34.0 km</title></rect><rect x="723" y="128" width="10" height="10" rx="2" fill="#4dd2ff"><title>2022-12-24: 11.9 km</title></rect><rect x="723" y="141" width="10" height="10" rx="2" fill="#27546a"><title>2022-12-25: 0.8 km</title></rect><rect x="736" y="63" width="10" height="10" rx="2" fill="#4dd2ff"><title>2022-12-26: 9.1 km</title></rect><rect x="736" y="76" width="10" height="10" rx="2" fill="#4dd2ff"><title>2022-12-27: 14.9 km</title></rect><rect x="736" y="89" width="10" height="10" rx="2" fill="#4dd2ff"><title>2022-12-28: 9.1 km</title></rect><rect x="736" y="102" width="10" height="10" rx="2" fill="#4dd2ff"><title>2022-12-29: 13.3 km</title></rect><rect x="736" y="115" width="10" height="10" rx="2" fill="#4dd2ff"><title>2022-12-30: 10.1 km</title></rect><rect x="736" y="128" width="10" height="10" rx="2" fill="#ffff00"><title>2022-12-31: 18.6 km</title></rect></svg>